<?xml version="1.0" encoding="UTF-8" standalone="no"?>
<!DOCTYPE svg PUBLIC "-//W3C//DTD SVG 1.1//EN"
 "http://www.w3.org/Graphics/SVG/1.1/DTD/svg11.dtd">
<!-- Generated by graphviz version 2.38.0 (20140413.2041)
 -->
<!-- Title: controllers_diagram Pages: 1 -->
<svg width="630pt" height="579pt"
 viewBox="0.00 0.00 629.50 579.00" xmlns="http://www.w3.org/2000/svg" xmlns:xlink="http://www.w3.org/1999/xlink">
<g id="graph0" class="graph" transform="scale(1 1) rotate(0) translate(241.5 354)">
<title>controllers_diagram</title>
<polygon fill="none" stroke="none" points="-241.5,225 -241.5,-354 388,-354 388,225 -241.5,225"/>
<!-- _diagram_info -->
<g id="node1" class="node"><title>_diagram_info</title>
<text text-anchor="start" x="178" y="-233.6" font-family="Times,serif" font-size="13.00">Controllers diagram</text>
<text text-anchor="start" x="178" y="-219.6" font-family="Times,serif" font-size="13.00">Date: Nov 01 2016 &#45; 17:05</text>
<text text-anchor="start" x="178" y="-205.6" font-family="Times,serif" font-size="13.00">Migration version: 20160920053018</text>
<text text-anchor="start" x="178" y="-191.6" font-family="Times,serif" font-size="13.00">Generated by RailRoady 1.5.2</text>
<text text-anchor="start" x="178" y="-177.6" font-family="Times,serif" font-size="13.00">http://railroady.prestonlee.com</text>
</g>
<!-- FixedPagesController -->
<g id="node2" class="node"><title>FixedPagesController</title>
<path fill="none" stroke="black" d="M-192,-205C-192,-205 -82,-205 -82,-205 -76,-205 -70,-211 -70,-217 -70,-217 -70,-331 -70,-331 -70,-337 -76,-343 -82,-343 -82,-343 -192,-343 -192,-343 -198,-343 -204,-337 -204,-331 -204,-331 -204,-217 -204,-217 -204,-211 -198,-205 -192,-205"/>
<text text-anchor="middle" x="-137" y="-327.8" font-family="Times,serif" font-size="14.00">FixedPagesController</text>
<polyline fill="none" stroke="black" points="-204,-320 -70,-320 "/>
<text text-anchor="start" x="-196" y="-304.8" font-family="Times,serif" font-size="14.00">about</text>
<text text-anchor="start" x="-196" y="-289.8" font-family="Times,serif" font-size="14.00">contact</text>
<text text-anchor="start" x="-196" y="-274.8" font-family="Times,serif" font-size="14.00">faq</text>
<text text-anchor="start" x="-196" y="-259.8" font-family="Times,serif" font-size="14.00">home</text>
<polyline fill="none" stroke="black" points="-204,-252 -70,-252 "/>
<polyline fill="none" stroke="black" points="-204,-228 -70,-228 "/>
<text text-anchor="start" x="-196" y="-212.8" font-family="Times,serif" font-size="14.00">_layout</text>
</g>
<!-- BooksController -->
<g id="node3" class="node"><title>BooksController</title>
<path fill="none" stroke="black" d="M-22.5,-136.5C-22.5,-136.5 60.5,-136.5 60.5,-136.5 66.5,-136.5 72.5,-142.5 72.5,-148.5 72.5,-148.5 72.5,-337.5 72.5,-337.5 72.5,-343.5 66.5,-349.5 60.5,-349.5 60.5,-349.5 -22.5,-349.5 -22.5,-349.5 -28.5,-349.5 -34.5,-343.5 -34.5,-337.5 -34.5,-337.5 -34.5,-148.5 -34.5,-148.5 -34.5,-142.5 -28.5,-136.5 -22.5,-136.5"/>
<text text-anchor="middle" x="19" y="-334.3" font-family="Times,serif" font-size="14.00">BooksController</text>
<polyline fill="none" stroke="black" points="-34.5,-326.5 72.5,-326.5 "/>
<text text-anchor="start" x="-26.5" y="-311.3" font-family="Times,serif" font-size="14.00">create</text>
<text text-anchor="start" x="-26.5" y="-296.3" font-family="Times,serif" font-size="14.00">destroy</text>
<text text-anchor="start" x="-26.5" y="-281.3" font-family="Times,serif" font-size="14.00">edit</text>
<text text-anchor="start" x="-26.5" y="-266.3" font-family="Times,serif" font-size="14.00">index</text>
<text text-anchor="start" x="-26.5" y="-251.3" font-family="Times,serif" font-size="14.00">new</text>
<text text-anchor="start" x="-26.5" y="-236.3" font-family="Times,serif" font-size="14.00">show</text>
<text text-anchor="start" x="-26.5" y="-221.3" font-family="Times,serif" font-size="14.00">update</text>
<polyline fill="none" stroke="black" points="-34.5,-213.5 72.5,-213.5 "/>
<polyline fill="none" stroke="black" points="-34.5,-189.5 72.5,-189.5 "/>
<text text-anchor="start" x="-26.5" y="-174.3" font-family="Times,serif" font-size="14.00">_layout</text>
<text text-anchor="start" x="-26.5" y="-159.3" font-family="Times,serif" font-size="14.00">admin_user</text>
<text text-anchor="start" x="-26.5" y="-144.3" font-family="Times,serif" font-size="14.00">book_params</text>
</g>
<!-- SessionsController -->
<g id="node4" class="node"><title>SessionsController</title>
<path fill="none" stroke="black" d="M-225.5,152.5C-225.5,152.5 -130.5,152.5 -130.5,152.5 -124.5,152.5 -118.5,146.5 -118.5,140.5 -118.5,140.5 -118.5,41.5 -118.5,41.5 -118.5,35.5 -124.5,29.5 -130.5,29.5 -130.5,29.5 -225.5,29.5 -225.5,29.5 -231.5,29.5 -237.5,35.5 -237.5,41.5 -237.5,41.5 -237.5,140.5 -237.5,140.5 -237.5,146.5 -231.5,152.5 -225.5,152.5"/>
<text text-anchor="middle" x="-178" y="44.7" font-family="Times,serif" font-size="14.00">SessionsController</text>
<polyline fill="none" stroke="black" points="-237.5,52.5 -118.5,52.5 "/>
<text text-anchor="start" x="-229.5" y="67.7" font-family="Times,serif" font-size="14.00">create</text>
<text text-anchor="start" x="-229.5" y="82.7" font-family="Times,serif" font-size="14.00">destroy</text>
<text text-anchor="start" x="-229.5" y="97.7" font-family="Times,serif" font-size="14.00">new</text>
<polyline fill="none" stroke="black" points="-237.5,105.5 -118.5,105.5 "/>
<polyline fill="none" stroke="black" points="-237.5,129.5 -118.5,129.5 "/>
<text text-anchor="start" x="-229.5" y="144.7" font-family="Times,serif" font-size="14.00">_layout</text>
</g>
<!-- ApplicationController -->
<g id="node5" class="node"><title>ApplicationController</title>
<path fill="none" stroke="black" d="M250,101.5C250,101.5 362,101.5 362,101.5 368,101.5 374,95.5 374,89.5 374,89.5 374,4.5 374,4.5 374,-1.5 368,-7.5 362,-7.5 362,-7.5 250,-7.5 250,-7.5 244,-7.5 238,-1.5 238,4.5 238,4.5 238,89.5 238,89.5 238,95.5 244,101.5 250,101.5"/>
<text text-anchor="middle" x="306" y="7.7" font-family="Times,serif" font-size="14.00">ApplicationController</text>
<polyline fill="none" stroke="black" points="238,15.5 374,15.5 "/>
<polyline fill="none" stroke="black" points="238,39.5 374,39.5 "/>
<polyline fill="none" stroke="black" points="238,63.5 374,63.5 "/>
<text text-anchor="start" x="246" y="78.7" font-family="Times,serif" font-size="14.00">_layout</text>
<text text-anchor="start" x="246" y="93.7" font-family="Times,serif" font-size="14.00">logged_in_user</text>
</g>
<!-- PasswordResetsController -->
<g id="node6" class="node"><title>PasswordResetsController</title>
<path fill="none" stroke="black" d="M-73.5,118.5C-73.5,118.5 61.5,118.5 61.5,118.5 67.5,118.5 73.5,112.5 73.5,106.5 73.5,106.5 73.5,-82.5 73.5,-82.5 73.5,-88.5 67.5,-94.5 61.5,-94.5 61.5,-94.5 -73.5,-94.5 -73.5,-94.5 -79.5,-94.5 -85.5,-88.5 -85.5,-82.5 -85.5,-82.5 -85.5,106.5 -85.5,106.5 -85.5,112.5 -79.5,118.5 -73.5,118.5"/>
<text text-anchor="middle" x="-6" y="-79.3" font-family="Times,serif" font-size="14.00">PasswordResetsController</text>
<polyline fill="none" stroke="black" points="-85.5,-71.5 73.5,-71.5 "/>
<text text-anchor="start" x="-77.5" y="-56.3" font-family="Times,serif" font-size="14.00">create</text>
<text text-anchor="start" x="-77.5" y="-41.3" font-family="Times,serif" font-size="14.00">edit</text>
<text text-anchor="start" x="-77.5" y="-26.3" font-family="Times,serif" font-size="14.00">new</text>
<text text-anchor="start" x="-77.5" y="-11.3" font-family="Times,serif" font-size="14.00">update</text>
<polyline fill="none" stroke="black" points="-85.5,-3.5 73.5,-3.5 "/>
<polyline fill="none" stroke="black" points="-85.5,20.5 73.5,20.5 "/>
<text text-anchor="start" x="-77.5" y="35.7" font-family="Times,serif" font-size="14.00">_layout</text>
<text text-anchor="start" x="-77.5" y="50.7" font-family="Times,serif" font-size="14.00">check_expiration</text>
<text text-anchor="start" x="-77.5" y="65.7" font-family="Times,serif" font-size="14.00">get_user</text>
<text text-anchor="start" x="-77.5" y="80.7" font-family="Times,serif" font-size="14.00">password_blank?</text>
<text text-anchor="start" x="-77.5" y="95.7" font-family="Times,serif" font-size="14.00">user_params</text>
<text text-anchor="start" x="-77.5" y="110.7" font-family="Times,serif" font-size="14.00">valid_user</text>
</g>
<!-- AccountActivationsController -->
<g id="node7" class="node"><title>AccountActivationsController</title>
<path fill="none" stroke="black" d="M114,220.5C114,220.5 270,220.5 270,220.5 276,220.5 282,214.5 282,208.5 282,208.5 282,139.5 282,139.5 282,133.5 276,127.5 270,127.5 270,127.5 114,127.5 114,127.5 108,127.5 102,133.5 102,139.5 102,139.5 102,208.5 102,208.5 102,214.5 108,220.5 114,220.5"/>
<text text-anchor="middle" x="192" y="142.7" font-family="Times,serif" font-size="14.00">AccountActivationsController</text>
<polyline fill="none" stroke="black" points="102,150.5 282,150.5 "/>
<text text-anchor="start" x="110" y="165.7" font-family="Times,serif" font-size="14.00">edit</text>
<polyline fill="none" stroke="black" points="102,173.5 282,173.5 "/>
<polyline fill="none" stroke="black" points="102,197.5 282,197.5 "/>
<text text-anchor="start" x="110" y="212.7" font-family="Times,serif" font-size="14.00">_layout</text>
</g>
<!-- LeasesController -->
<g id="node8" class="node"><title>LeasesController</title>
<path fill="none" stroke="black" d="M-208.5,-0C-208.5,-0 -123.5,-0 -123.5,-0 -117.5,-0 -111.5,-6 -111.5,-12 -111.5,-12 -111.5,-156 -111.5,-156 -111.5,-162 -117.5,-168 -123.5,-168 -123.5,-168 -208.5,-168 -208.5,-168 -214.5,-168 -220.5,-162 -220.5,-156 -220.5,-156 -220.5,-12 -220.5,-12 -220.5,-6 -214.5,-0 -208.5,-0"/>
<text text-anchor="middle" x="-166" y="-152.8" font-family="Times,serif" font-size="14.00">LeasesController</text>
<polyline fill="none" stroke="black" points="-220.5,-145 -111.5,-145 "/>
<text text-anchor="start" x="-212.5" y="-129.8" font-family="Times,serif" font-size="14.00">accept</text>
<text text-anchor="start" x="-212.5" y="-114.8" font-family="Times,serif" font-size="14.00">create</text>
<text text-anchor="start" x="-212.5" y="-99.8" font-family="Times,serif" font-size="14.00">destroy</text>
<text text-anchor="start" x="-212.5" y="-84.8" font-family="Times,serif" font-size="14.00">index</text>
<text text-anchor="start" x="-212.5" y="-69.8" font-family="Times,serif" font-size="14.00">new</text>
<polyline fill="none" stroke="black" points="-220.5,-62 -111.5,-62 "/>
<polyline fill="none" stroke="black" points="-220.5,-38 -111.5,-38 "/>
<text text-anchor="start" x="-212.5" y="-22.8" font-family="Times,serif" font-size="14.00">_layout</text>
<text text-anchor="start" x="-212.5" y="-7.8" font-family="Times,serif" font-size="14.00">lease_params</text>
</g>
<!-- UsersController -->
<g id="node9" class="node"><title>UsersController</title>
<path fill="none" stroke="black" d="M114.5,101.5C114.5,101.5 193.5,101.5 193.5,101.5 199.5,101.5 205.5,95.5 205.5,89.5 205.5,89.5 205.5,-129.5 205.5,-129.5 205.5,-135.5 199.5,-141.5 193.5,-141.5 193.5,-141.5 114.5,-141.5 114.5,-141.5 108.5,-141.5 102.5,-135.5 102.5,-129.5 102.5,-129.5 102.5,89.5 102.5,89.5 102.5,95.5 108.5,101.5 114.5,101.5"/>
<text text-anchor="middle" x="154" y="-126.3" font-family="Times,serif" font-size="14.00">UsersController</text>
<polyline fill="none" stroke="black" points="102.5,-118.5 205.5,-118.5 "/>
<text text-anchor="start" x="110.5" y="-103.3" font-family="Times,serif" font-size="14.00">create</text>
<text text-anchor="start" x="110.5" y="-88.3" font-family="Times,serif" font-size="14.00">destroy</text>
<text text-anchor="start" x="110.5" y="-73.3" font-family="Times,serif" font-size="14.00">edit</text>
<text text-anchor="start" x="110.5" y="-58.3" font-family="Times,serif" font-size="14.00">index</text>
<text text-anchor="start" x="110.5" y="-43.3" font-family="Times,serif" font-size="14.00">new</text>
<text text-anchor="start" x="110.5" y="-28.3" font-family="Times,serif" font-size="14.00">show</text>
<text text-anchor="start" x="110.5" y="-13.3" font-family="Times,serif" font-size="14.00">update</text>
<polyline fill="none" stroke="black" points="102.5,-5.5 205.5,-5.5 "/>
<polyline fill="none" stroke="black" points="102.5,18.5 205.5,18.5 "/>
<text text-anchor="start" x="110.5" y="33.7" font-family="Times,serif" font-size="14.00">_layout</text>
<text text-anchor="start" x="110.5" y="48.7" font-family="Times,serif" font-size="14.00">admin_user</text>
<text text-anchor="start" x="110.5" y="63.7" font-family="Times,serif" font-size="14.00">correct_user</text>
<text text-anchor="start" x="110.5" y="78.7" font-family="Times,serif" font-size="14.00">logged_in_user</text>
<text text-anchor="start" x="110.5" y="93.7" font-family="Times,serif" font-size="14.00">user_params</text>
</g>
</g>
</svg>
