<?xml version="1.0" encoding="UTF-8" standalone="no"?>
<!DOCTYPE svg PUBLIC "-//W3C//DTD SVG 1.1//EN"
 "http://www.w3.org/Graphics/SVG/1.1/DTD/svg11.dtd">
<!-- Generated by graphviz version 2.38.0 (20140413.2041)
 -->
<!-- Title: models_diagram Pages: 1 -->
<svg width="496pt" height="230pt"
 viewBox="0.00 0.00 496.30 230.00" xmlns="http://www.w3.org/2000/svg" xmlns:xlink="http://www.w3.org/1999/xlink">
<g id="graph0" class="graph" transform="scale(1 1) rotate(0) translate(4 226)">
<title>models_diagram</title>
<polygon fill="none" stroke="none" points="-4,4 -4,-226 492.298,-226 492.298,4 -4,4"/>
<!-- _diagram_info -->
<g id="node1" class="node"><title>_diagram_info</title>
<text text-anchor="start" x="8" y="-207.6" font-family="Times,serif" font-size="13.00">Models diagram</text>
<text text-anchor="start" x="8" y="-193.6" font-family="Times,serif" font-size="13.00">Date: Nov 01 2016 &#45; 17:05</text>
<text text-anchor="start" x="8" y="-179.6" font-family="Times,serif" font-size="13.00">Migration version: 20160920053018</text>
<text text-anchor="start" x="8" y="-165.6" font-family="Times,serif" font-size="13.00">Generated by RailRoady 1.5.2</text>
<text text-anchor="start" x="8" y="-151.6" font-family="Times,serif" font-size="13.00">http://railroady.prestonlee.com</text>
</g>
<!-- ApplicationRecord -->
<g id="node2" class="node"><title>ApplicationRecord</title>
<ellipse fill="none" stroke="black" cx="309" cy="-183" rx="77.1866" ry="18"/>
<text text-anchor="middle" x="309" y="-179.3" font-family="Times,serif" font-size="14.00">ApplicationRecord</text>
</g>
<!-- Book -->
<g id="node3" class="node"><title>Book</title>
<ellipse fill="none" stroke="black" cx="434" cy="-183" rx="29.795" ry="18"/>
<text text-anchor="middle" x="434" y="-179.3" font-family="Times,serif" font-size="14.00">Book</text>
</g>
<!-- Lease -->
<g id="node4" class="node"><title>Lease</title>
<ellipse fill="none" stroke="black" cx="433" cy="-18" rx="31.3957" ry="18"/>
<text text-anchor="middle" x="433" y="-14.3" font-family="Times,serif" font-size="14.00">Lease</text>
</g>
<!-- Book&#45;&gt;Lease -->
<g id="edge2" class="edge"><title>Book&#45;&gt;Lease</title>
<path fill="none" stroke="#a8deb2" d="M429.705,-156.894C426.426,-134.603 422.813,-101.142 425,-72 425.637,-63.5179 426.838,-54.3361 428.121,-46.0356"/>
<ellipse fill="none" stroke="#a8deb2" cx="430.323" cy="-160.904" rx="4.00001" ry="4.00001"/>
<polygon fill="#a8deb2" stroke="#a8deb2" points="428.13,-45.9796 434.192,-36.8417 428.941,-41.0458 429.752,-36.1119 429.752,-36.1119 429.752,-36.1119 428.941,-41.0458 425.311,-35.3822 428.13,-45.9796 428.13,-45.9796"/>
</g>
<!-- User -->
<g id="node5" class="node"><title>User</title>
<ellipse fill="none" stroke="black" cx="461" cy="-90" rx="27.0966" ry="18"/>
<text text-anchor="middle" x="461" y="-86.3" font-family="Times,serif" font-size="14.00">User</text>
</g>
<!-- Book&#45;&gt;User -->
<g id="edge1" class="edge"><title>Book&#45;&gt;User</title>
<path fill="none" stroke="#8c9e6e" d="M442.034,-154.922C445.55,-143.073 449.66,-129.218 453.154,-117.443"/>
<polygon fill="#8c9e6e" stroke="#8c9e6e" points="441.923,-155.297 434.764,-163.604 440.501,-160.09 439.078,-164.884 439.078,-164.884 439.078,-164.884 440.501,-160.09 443.393,-166.164 441.923,-155.297 441.923,-155.297"/>
<polygon fill="#8c9e6e" stroke="#8c9e6e" points="453.191,-117.319 460.35,-109.012 454.613,-112.526 456.036,-107.732 456.036,-107.732 456.036,-107.732 454.613,-112.526 451.721,-106.452 453.191,-117.319 453.191,-117.319"/>
</g>
<!-- User&#45;&gt;Lease -->
<g id="edge3" class="edge"><title>User&#45;&gt;Lease</title>
<path fill="none" stroke="#ebd579" d="M451.311,-64.7779C448.818,-58.544 446.122,-51.8046 443.585,-45.4634"/>
<ellipse fill="none" stroke="#ebd579" cx="452.879" cy="-68.6971" rx="4.00001" ry="4.00001"/>
<polygon fill="#ebd579" stroke="#ebd579" points="443.496,-45.241 443.961,-34.2849 441.639,-40.5986 439.782,-35.9562 439.782,-35.9562 439.782,-35.9562 441.639,-40.5986 435.604,-37.6275 443.496,-45.241 443.496,-45.241"/>
</g>
</g>
</svg>
