<?xml version="1.0" encoding="UTF-8" standalone="no"?>
<!DOCTYPE svg PUBLIC "-//W3C//DTD SVG 1.1//EN"
 "http://www.w3.org/Graphics/SVG/1.1/DTD/svg11.dtd">
<!-- Generated by graphviz version 2.38.0 (20140413.2041)
 -->
<!-- Title: models_diagram Pages: 1 -->
<svg width="612pt" height="671pt"
 viewBox="0.00 0.00 612.00 671.00" xmlns="http://www.w3.org/2000/svg" xmlns:xlink="http://www.w3.org/1999/xlink">
<g id="graph0" class="graph" transform="scale(1 1) rotate(0) translate(4 667)">
<title>models_diagram</title>
<polygon fill="none" stroke="none" points="-4,4 -4,-667 608,-667 608,4 -4,4"/>
<!-- _diagram_info -->
<g id="node1" class="node"><title>_diagram_info</title>
<text text-anchor="start" x="8" y="-604.1" font-family="Times,serif" font-size="13.00">Models diagram</text>
<text text-anchor="start" x="8" y="-590.1" font-family="Times,serif" font-size="13.00">Date: Nov 01 2016 &#45; 17:05</text>
<text text-anchor="start" x="8" y="-576.1" font-family="Times,serif" font-size="13.00">Migration version: 20160920053018</text>
<text text-anchor="start" x="8" y="-562.1" font-family="Times,serif" font-size="13.00">Generated by RailRoady 1.5.2</text>
<text text-anchor="start" x="8" y="-548.1" font-family="Times,serif" font-size="13.00">http://railroady.prestonlee.com</text>
</g>
<!-- ApplicationRecord -->
<g id="node2" class="node"><title>ApplicationRecord</title>
<ellipse fill="none" stroke="black" cx="309" cy="-579.5" rx="77.1866" ry="18"/>
<text text-anchor="middle" x="309" y="-575.8" font-family="Times,serif" font-size="14.00">ApplicationRecord</text>
</g>
<!-- Book -->
<g id="node3" class="node"><title>Book</title>
<path fill="none" stroke="black" d="M416.5,-496.5C416.5,-496.5 523.5,-496.5 523.5,-496.5 529.5,-496.5 535.5,-502.5 535.5,-508.5 535.5,-508.5 535.5,-650.5 535.5,-650.5 535.5,-656.5 529.5,-662.5 523.5,-662.5 523.5,-662.5 416.5,-662.5 416.5,-662.5 410.5,-662.5 404.5,-656.5 404.5,-650.5 404.5,-650.5 404.5,-508.5 404.5,-508.5 404.5,-502.5 410.5,-496.5 416.5,-496.5"/>
<text text-anchor="middle" x="470" y="-647.3" font-family="Times,serif" font-size="14.00">Book</text>
<polyline fill="none" stroke="black" points="404.5,-639.5 535.5,-639.5 "/>
<text text-anchor="start" x="412.5" y="-624.3" font-family="Times,serif" font-size="14.00">id :INTEGER</text>
<text text-anchor="start" x="412.5" y="-609.3" font-family="Times,serif" font-size="14.00">ISBN :varchar</text>
<text text-anchor="start" x="412.5" y="-594.3" font-family="Times,serif" font-size="14.00">title :varchar</text>
<text text-anchor="start" x="412.5" y="-579.3" font-family="Times,serif" font-size="14.00">description :varchar</text>
<text text-anchor="start" x="412.5" y="-564.3" font-family="Times,serif" font-size="14.00">quantity :integer</text>
<text text-anchor="start" x="412.5" y="-549.3" font-family="Times,serif" font-size="14.00">created_at :datetime</text>
<text text-anchor="start" x="412.5" y="-534.3" font-family="Times,serif" font-size="14.00">updated_at :datetime</text>
<text text-anchor="start" x="412.5" y="-519.3" font-family="Times,serif" font-size="14.00">available :boolean</text>
<text text-anchor="start" x="412.5" y="-504.3" font-family="Times,serif" font-size="14.00">user_id :integer</text>
</g>
<!-- Lease -->
<g id="node4" class="node"><title>Lease</title>
<path fill="none" stroke="black" d="M416.5,-0.5C416.5,-0.5 523.5,-0.5 523.5,-0.5 529.5,-0.5 535.5,-6.5 535.5,-12.5 535.5,-12.5 535.5,-169.5 535.5,-169.5 535.5,-175.5 529.5,-181.5 523.5,-181.5 523.5,-181.5 416.5,-181.5 416.5,-181.5 410.5,-181.5 404.5,-175.5 404.5,-169.5 404.5,-169.5 404.5,-12.5 404.5,-12.5 404.5,-6.5 410.5,-0.5 416.5,-0.5"/>
<text text-anchor="middle" x="470" y="-166.3" font-family="Times,serif" font-size="14.00">Lease</text>
<polyline fill="none" stroke="black" points="404.5,-158.5 535.5,-158.5 "/>
<text text-anchor="start" x="412.5" y="-143.3" font-family="Times,serif" font-size="14.00">id :INTEGER</text>
<text text-anchor="start" x="412.5" y="-128.3" font-family="Times,serif" font-size="14.00">user_id :integer</text>
<text text-anchor="start" x="412.5" y="-113.3" font-family="Times,serif" font-size="14.00">book_id :integer</text>
<text text-anchor="start" x="412.5" y="-98.3" font-family="Times,serif" font-size="14.00">status :integer</text>
<text text-anchor="start" x="412.5" y="-83.3" font-family="Times,serif" font-size="14.00">charges :float</text>
<text text-anchor="start" x="412.5" y="-68.3" font-family="Times,serif" font-size="14.00">created_at :datetime</text>
<text text-anchor="start" x="412.5" y="-53.3" font-family="Times,serif" font-size="14.00">updated_at :datetime</text>
<text text-anchor="start" x="412.5" y="-38.3" font-family="Times,serif" font-size="14.00">due_date :datetime</text>
<text text-anchor="start" x="412.5" y="-23.3" font-family="Times,serif" font-size="14.00">start_date :datetime</text>
<text text-anchor="start" x="412.5" y="-8.3" font-family="Times,serif" font-size="14.00">over_due :datetime</text>
</g>
<!-- Book&#45;&gt;Lease -->
<g id="edge2" class="edge"><title>Book&#45;&gt;Lease</title>
<path fill="none" stroke="#6f3543" d="M440.487,-488.355C438.249,-478.863 436.343,-469.288 435,-460 419.608,-353.551 420.474,-324.57 435,-218 436.181,-209.338 437.798,-200.43 439.694,-191.548"/>
<ellipse fill="none" stroke="#6f3543" cx="441.485" cy="-492.416" rx="4.00001" ry="4.00001"/>
<polygon fill="#6f3543" stroke="#6f3543" points="439.75,-191.3 446.335,-182.532 440.847,-186.422 441.945,-181.544 441.945,-181.544 441.945,-181.544 440.847,-186.422 437.555,-180.556 439.75,-191.3 439.75,-191.3"/>
</g>
<!-- User -->
<g id="node5" class="node"><title>User</title>
<path fill="none" stroke="black" d="M456,-218.5C456,-218.5 592,-218.5 592,-218.5 598,-218.5 604,-224.5 604,-230.5 604,-230.5 604,-447.5 604,-447.5 604,-453.5 598,-459.5 592,-459.5 592,-459.5 456,-459.5 456,-459.5 450,-459.5 444,-453.5 444,-447.5 444,-447.5 444,-230.5 444,-230.5 444,-224.5 450,-218.5 456,-218.5"/>
<text text-anchor="middle" x="524" y="-444.3" font-family="Times,serif" font-size="14.00">User</text>
<polyline fill="none" stroke="black" points="444,-436.5 604,-436.5 "/>
<text text-anchor="start" x="452" y="-421.3" font-family="Times,serif" font-size="14.00">id :INTEGER</text>
<text text-anchor="start" x="452" y="-406.3" font-family="Times,serif" font-size="14.00">name :varchar</text>
<text text-anchor="start" x="452" y="-391.3" font-family="Times,serif" font-size="14.00">email :varchar</text>
<text text-anchor="start" x="452" y="-376.3" font-family="Times,serif" font-size="14.00">created_at :datetime</text>
<text text-anchor="start" x="452" y="-361.3" font-family="Times,serif" font-size="14.00">updated_at :datetime</text>
<text text-anchor="start" x="452" y="-346.3" font-family="Times,serif" font-size="14.00">password_digest :varchar</text>
<text text-anchor="start" x="452" y="-331.3" font-family="Times,serif" font-size="14.00">remember_digest :varchar</text>
<text text-anchor="start" x="452" y="-316.3" font-family="Times,serif" font-size="14.00">admin :boolean</text>
<text text-anchor="start" x="452" y="-301.3" font-family="Times,serif" font-size="14.00">activation_digest :varchar</text>
<text text-anchor="start" x="452" y="-286.3" font-family="Times,serif" font-size="14.00">activated :boolean</text>
<text text-anchor="start" x="452" y="-271.3" font-family="Times,serif" font-size="14.00">activated_at :datetime</text>
<text text-anchor="start" x="452" y="-256.3" font-family="Times,serif" font-size="14.00">reset_digest :varchar</text>
<text text-anchor="start" x="452" y="-241.3" font-family="Times,serif" font-size="14.00">reset_sent_at :datetime</text>
<text text-anchor="start" x="452" y="-226.3" font-family="Times,serif" font-size="14.00">mobile_number :varchar</text>
</g>
<!-- Book&#45;&gt;User -->
<g id="edge1" class="edge"><title>Book&#45;&gt;User</title>
<path fill="none" stroke="#f48c91" d="M490.811,-486.584C492.057,-481.082 493.321,-475.498 494.592,-469.883"/>
<polygon fill="#f48c91" stroke="#f48c91" points="490.792,-486.669 484.195,-495.428 489.688,-491.545 488.584,-496.422 488.584,-496.422 488.584,-496.422 489.688,-491.545 492.973,-497.416 490.792,-486.669 490.792,-486.669"/>
<polygon fill="#f48c91" stroke="#f48c91" points="494.678,-469.505 501.275,-460.746 495.782,-464.629 496.886,-459.752 496.886,-459.752 496.886,-459.752 495.782,-464.629 492.497,-458.758 494.678,-469.505 494.678,-469.505"/>
</g>
<!-- User&#45;&gt;Lease -->
<g id="edge3" class="edge"><title>User&#45;&gt;Lease</title>
<path fill="none" stroke="#55847a" d="M495.934,-210.143C494.578,-203.969 493.227,-197.811 491.892,-191.731"/>
<ellipse fill="none" stroke="#55847a" cx="496.854" cy="-214.336" rx="4.00001" ry="4.00001"/>
<polygon fill="#55847a" stroke="#55847a" points="491.809,-191.353 494.061,-180.621 490.737,-186.469 489.665,-181.586 489.665,-181.586 489.665,-181.586 490.737,-186.469 485.27,-182.551 491.809,-191.353 491.809,-191.353"/>
</g>
</g>
</svg>
